<!DOCTYPE svg PUBLIC "-//W3C//DTD SVG 1.1//EN" "http://www.w3.org/Graphics/SVG/1.1/DTD/svg11.dtd">
<!-- Uploaded to: SVG Repo, www.svgrepo.com, Transformed by: SVG Repo Mixer Tools -->
<svg width="800px" height="800px" viewBox="0 0 64 64" version="1.1" xmlns="http://www.w3.org/2000/svg" xmlns:xlink="http://www.w3.org/1999/xlink" xmlns:sketch="http://www.bohemiancoding.com/sketch/ns" fill="#ffffff">
<g id="SVGRepo_bgCarrier" stroke-width="0"/>
<g id="SVGRepo_tracerCarrier" stroke-linecap="round" stroke-linejoin="round"/>
<g id="SVGRepo_iconCarrier"> <title>Bread</title> <desc>Created with Sketch.</desc> <defs> </defs> <g id="Page-1" stroke="none" stroke-width="1" fill="none" fill-rule="evenodd" sketch:type="MSPage"> <g id="Bread" sketch:type="MSLayerGroup" transform="translate(1.000000, 1.000000)" stroke="#ffffff" stroke-width="2"> <path d="M59.4,60.1 C52.5,67 40.2,53.5 24.4,37.6 C8.5,21.7 -5,9.5 1.9,2.6 C8.8,-4.3 27.3,2.9 43.2,18.8 C59.1,34.7 66.3,53.2 59.4,60.1 L59.4,60.1 Z" id="Shape" sketch:type="MSShapeGroup"> </path> <path d="M27,6.2 C27,6.2 22,4.7 18.4,8.2" id="Shape" sketch:type="MSShapeGroup"> </path> <path d="M34.3,11.3 C34.3,11.3 29.3,11.4 26.4,14.4" id="Shape" sketch:type="MSShapeGroup"> </path> <path d="M42,17.8 C42,17.8 36.4,18.6 33.4,21.5" id="Shape" sketch:type="MSShapeGroup"> </path> <path d="M49.3,26.1 C49.3,26.1 45.4,25.2 41.2,29.4" id="Shape" sketch:type="MSShapeGroup"> </path> <path d="M55.3,34.9 C55.3,34.9 51.1,33.8 47.5,37.4" id="Shape" sketch:type="MSShapeGroup"> </path> </g> </g> </g>
</svg>