<?xml version="1.0"?>
<svg width="634.538" height="634.538" xmlns="http://www.w3.org/2000/svg" xmlns:svg="http://www.w3.org/2000/svg" enable-background="new 0 0 634.538 634.538" version="1.1" xml:space="preserve">
 <g class="layer">
  <title>Layer 1</title>
  <g id="svg_1">
   <g id="svg_2">
    <path d="m185.06,420.87c-35.66,0 -64.54,-32.3 -64.54,-72.07c0,-39.79 28.88,-72.06 64.54,-72.06s64.55,32.28 64.55,72.06c0.01,39.76 -28.89,72.07 -64.55,72.07l0,0zm0.02,-173.15c-50,0 -90.54,45.28 -90.54,101.07c0,55.8 40.54,101.04 90.54,101.04s90.54,-45.22 90.54,-101.04c0,-55.8 -40.56,-101.07 -90.54,-101.07l0,0z" fill="#ffffff" id="svg_3"/>
    <path d="m358.44,459.7c0,0 -0.81,0.38 -2.47,1.32c-6.14,4.1 -24.05,18.65 -52.46,64.35c-2.98,4.63 -6.03,9.51 -9.13,14.83c-21.19,29.74 -53.99,48.87 -90.82,48.87c-60.16,0 -109.43,-50.85 -115.37,-116.29c-0.1,-2.63 -0.35,-5.31 -0.46,-7.79c-3.66,-46 -15.16,-68.47 -20.85,-76.95c-0.46,-0.76 -0.93,-1.44 -1.41,-1.93c-1.18,-1.74 -1.9,-2.43 -1.9,-2.43c-16.94,-21.63 -27,-49.91 -27,-81.02c0,-68.58 49.86,-124.22 111.32,-124.22c24.76,0 47.72,8.86 66.22,24.32c0.47,0.52 1.06,0.78 1.52,1.58c1.56,1.72 4.62,4.36 8.9,8.05c0.23,0.29 0.36,0.54 0.6,0.54c15.97,13.5 49.39,36.35 98.75,46.54c23.9,2.78 45.24,15.58 60.53,34.5c15.4,18.88 24.73,43.86 24.73,71.5c0.01,41.02 -20.59,76.39 -50.7,94.25l0,0zm57.67,-183.39c-18.28,-22.61 -43.8,-37.93 -72.41,-41.25c-59.06,-12.18 -99.03,-39.53 -118.15,-55.67c-0.29,0 -0.43,-0.31 -0.71,-0.64c-5.11,-4.41 -8.79,-7.58 -10.62,-9.63c-0.58,-0.95 -1.28,-1.27 -1.86,-1.91c-22.1,-18.49 -49.58,-29.08 -79.19,-29.08c-73.52,0.01 -133.17,66.56 -133.17,148.62c0,37.15 12.04,71.01 32.3,96.95c0,0 0.85,0.76 2.28,2.86c0.55,0.6 1.12,1.42 1.68,2.38c6.81,10.07 20.53,37 24.92,92c0.14,3 0.43,6.15 0.59,9.34c7.08,78.25 66.01,139.13 138,139.13c44.05,0 83.29,-22.91 108.66,-58.49c3.7,-6.34 7.37,-12.19 10.92,-17.74c34,-54.7 55.39,-72.07 62.76,-76.99c1.97,-1.13 2.97,-1.58 2.97,-1.58c35.98,-21.34 60.65,-63.72 60.65,-112.76c-0.04,-33.03 -11.22,-62.91 -29.62,-85.53l0,0z" fill="#ffffff" id="svg_4"/>
    <g id="svg_5">
     <path d="m149.73,323.73c0,0 13.36,-19.51 36.23,-20.75c14.9,-0.25 24.2,4.69 27.08,9.14c2.88,4.43 7.75,20.26 -9.3,25.69c-3.55,0.49 -9.75,-2.2 -9.75,-2.2s-12.63,-3.96 -20.81,6.41c-3.32,4.71 -4.65,8.4 -5.31,10.88c-0.67,2.48 -3.66,12.61 -13.68,12.35c-10.01,-0.26 -15.99,-11.12 -13.33,-21.25c2.66,-10.14 8.87,-20.28 8.87,-20.28l0,0z" fill="#ffffff" id="svg_6"/>
     <path d="m231.23,145.86c0,0 13.21,8.14 20.5,-9.63c7.32,-17.79 18.39,-40.53 52.03,-64.48c17.05,-13.59 60.21,-32.12 104.48,-35.09c20.39,-1.73 73.95,-4.93 134.62,31.13c12.84,7.9 55.11,37.8 62.2,87.46c2.23,18.77 3.32,54.04 -34.29,92.48c-4.44,4.12 -6.65,7.09 -6.65,12.63s-0.22,177.77 -0.22,177.77s-1.34,21.25 -19.25,21.25c-17.93,0 -101.41,0 -101.41,0s-13.29,-0.76 -15.71,13.58c-0.22,5.45 1.34,18.03 12.17,18.03c10.86,0 97.19,0 97.19,0s23.9,2.72 37.19,-11.34c13.28,-14.12 18.14,-24.98 18.14,-41.52s0,-161.82 0,-161.82s1.79,-9.89 7.1,-15.94c5.3,-6.04 32.54,-38.99 35.18,-81.45c0.45,-29.61 -2.22,-56.27 -27.02,-91.36c-24.77,-35.09 -69.07,-63.74 -113.78,-74.61c-44.71,-10.88 -119.99,-20.26 -196.13,26.68c-40.73,24.21 -57.86,53.36 -66.33,70.16c-8.5,16.77 -11.01,27.15 -0.01,36.04l0,0z" fill="#ffffff" id="svg_7"/>
    </g>
   </g>
  </g>
  <g id="svg_8"/>
  <g id="svg_9"/>
  <g id="svg_10"/>
  <g id="svg_11"/>
  <g id="svg_12"/>
  <g id="svg_13"/>
  <g id="svg_14"/>
  <g id="svg_15"/>
  <g id="svg_16"/>
  <g id="svg_17"/>
  <g id="svg_18"/>
  <g id="svg_19"/>
  <g id="svg_20"/>
  <g id="svg_21"/>
  <g id="svg_22"/>
 </g>
</svg>