<?xml version="1.0"?>
<svg width="512" height="512" xmlns="http://www.w3.org/2000/svg" xmlns:svg="http://www.w3.org/2000/svg" version="1.1" xml:space="preserve">
 <g class="layer">
  <title>Layer 1</title>
  <g id="svg_1">
   <g id="svg_2">
    <g id="svg_3">
     <path d="m375.82,226.84c-3.1,-3.09 -8.11,-3.09 -11.21,0l-15.5,15.51c-3.09,3.09 -3.09,8.11 0,11.2c1.55,1.55 3.57,2.32 5.6,2.32s4.06,-0.77 5.6,-2.32l15.51,-15.5c3.09,-3.1 3.09,-8.11 0,-11.21z" fill="#ffffff" id="svg_4"/>
     <path d="m492.12,399.75l-62.24,0c0.15,-6.56 0.59,-14.5 1.64,-22.71c2.02,-15.69 -0.22,-31.96 -1.7,-42.72c-0.55,-3.99 -1.03,-7.44 -1.05,-9.22c-0.06,-4.29 0.3,-10.44 1.06,-17.98c1.71,-0.63 3.3,-1.6 4.65,-2.88c2.7,-2.56 4.25,-6.16 4.25,-9.88l0,-9.69c0,-11.71 -9.15,-21.58 -20.82,-22.46c-7.39,-0.55 -17.14,-1.23 -28.57,-1.89c14.84,-17.65 16.96,-41.97 17.16,-52.07c0.06,-3.21 -1.2,-6.35 -3.47,-8.62c-2.27,-2.27 -5.4,-3.53 -8.62,-3.47c-10.79,0.21 -37.82,2.62 -55.59,20.4c-11.94,11.94 -17.02,27.9 -19.1,41.15c-6.69,-0.1 -13.49,-0.16 -20.35,-0.16c-11.23,0 -21.31,-0.08 -30.46,-0.21l-27.89,-27.89l14.75,-14.75l30.66,30.65c1.54,1.55 3.57,2.32 5.6,2.32s4.05,-0.77 5.6,-2.32c3.09,-3.09 3.09,-8.11 0,-11.2l-36.25,-36.25c0,-0.01 -0.01,-0.01 -0.01,-0.01l-31.42,-31.41l0,0c-4.65,-4.66 -10.84,-7.22 -17.42,-7.22c-6.53,0 -12.67,2.52 -17.31,7.1l-106.38,-106.39c-2.86,-2.86 -6.66,-4.43 -10.71,-4.43c-4.05,0 -7.85,1.57 -10.71,4.43l-7.07,7.08c-2.87,2.86 -4.44,6.66 -4.44,10.71c0,4.04 1.57,7.85 4.44,10.71l106.37,106.38c-4.57,4.64 -7.09,10.78 -7.09,17.31c0,6.58 2.56,12.77 7.21,17.42l24.34,24.34c-14.15,-1.02 -26.4,-1.9 -42.38,-1.9c-21.3,0 -43.63,4.59 -58.61,8.44c-9.96,2.56 -16.91,11.53 -16.91,21.82l0,10.23c0,4.33 1.99,8.3 5.46,10.89c0.12,0.09 0.24,0.15 0.35,0.24c0.44,10.06 1.48,19.13 3.12,27c1.16,5.61 0.33,10.6 -0.73,16.91c-1.22,7.29 -2.75,16.36 -1.17,28.43c1.02,7.74 0.82,16.74 0.38,23.77l-60.81,0c-10.96,0 -19.88,8.92 -19.88,19.88l0,16.95c0,10.96 8.92,19.88 19.88,19.88l472.24,0c10.96,0 19.88,-8.92 19.88,-19.88l0,-16.95c0,-10.96 -8.92,-19.88 -19.88,-19.88zm-142.1,-172c4.32,-4.31 16.61,-14.09 40.47,-15.58c-1.49,23.86 -11.27,36.15 -15.58,40.47c-2.42,2.42 -5.29,4.59 -8.5,6.5c-9.62,-0.44 -19.93,-0.82 -30.67,-1.1c1.77,-9.54 5.67,-21.67 14.28,-30.29zm-104.01,29.09c-12.03,-0.36 -22.07,-0.83 -30.83,-1.33l-0.11,-0.11l14.75,-14.75l16.19,16.19zm-67.96,-38.46c-1.67,-1.66 -2.58,-3.87 -2.58,-6.22s0.91,-4.57 2.58,-6.23l5.48,-5.48c3.09,-3.09 3.09,-8.11 0,-11.2l-111.49,-111.49l6.09,-6.09l111.49,111.49c3.09,3.09 8.11,3.09 11.2,0l5.48,-5.48c1.67,-1.67 3.88,-2.58 6.23,-2.58s4.56,0.91 6.22,2.58c0,0 0,0 0,0l25.82,25.82l-20.34,20.34c-0.01,0.01 -0.01,0.01 -0.01,0.01c0,0 0,0 0,0l-20.35,20.35l-25.82,-25.82zm-88.93,63.89c0,-3.05 2.06,-5.71 5.01,-6.47c11.54,-2.96 33.99,-7.93 54.67,-7.93c15.5,0 26.96,0.82 41.47,1.86c6.09,0.44 12.59,0.91 19.97,1.36c0.51,0.1 1.03,0.15 1.55,0.15c0.19,0 0.39,-0.01 0.58,-0.02c19.76,1.16 45.87,2.17 87,2.17c48.73,0 94.44,2.89 117.35,4.62c3.46,0.26 6.17,3.19 6.17,6.66l0,7.31c-13.19,-0.83 -35.41,-3.12 -56.93,-5.33c-25.67,-2.64 -49.91,-5.13 -58.46,-5.13c-8.94,0 -22.6,2.57 -37.06,5.29c-14.4,2.7 -29.29,5.5 -38.39,5.5c-9.11,0 -28.36,-2.67 -46.97,-5.25c-19.72,-2.74 -38.34,-5.32 -49.33,-5.54c-0.43,0 -0.87,-0.01 -1.31,-0.01c-14.69,0 -33.62,4.66 -45.32,8.01l0,-7.25zm7.69,101.65c22.02,4.26 69.36,11.79 109.76,7.12c41.02,-4.73 94.86,0.52 120.73,3.04c5.26,0.51 9.41,0.91 12.06,1.09c4.57,0.31 9.11,0.45 13.58,0.45c23.98,0 46.09,-3.98 61.56,-6.76c-0.25,3.89 -0.39,7.56 -0.47,10.89l-317.46,0c0.29,-4.96 0.43,-10.41 0.24,-15.83zm314.9,-10.66c-17.58,3.17 -44.14,7.96 -71.28,6.11c-2.41,-0.17 -6.46,-0.56 -11.6,-1.06c-26.41,-2.57 -81.38,-7.93 -124.07,-3c-34.03,3.92 -78.75,-1.51 -109.25,-7.79c-0.19,-6.26 0.61,-11.45 1.44,-16.46c17.67,2.71 41.97,7.67 58.27,12.56c10.56,3.18 19.25,4.37 26.89,4.37c11.41,0 20.45,-2.67 29.8,-5.44c10.69,-3.16 21.74,-6.44 38.47,-6.05c13.27,0.3 29.11,2.44 43.09,4.32c11.63,1.57 21.68,2.93 28.17,2.93c20.07,0 39.64,-3.31 56.91,-6.22c14.26,-2.41 26.91,-4.54 37.48,-4.56c0.49,6.27 0.67,13 0.06,19.51c-1.39,0.24 -2.83,0.5 -4.38,0.78zm2.08,-64.84c-24.78,2.46 -75.5,4.95 -108.8,1.2c-18.72,-2.1 -45.96,0.59 -74.8,3.43c-21.11,2.08 -42.94,4.24 -60.31,4.24c-18.38,0 -44.56,-4.22 -63.67,-7.29c-4,-0.64 -7.66,-1.23 -10.98,-1.74c-0.09,-1.3 -0.17,-2.61 -0.24,-3.94c16.46,-4.62 31.01,-7.14 40.44,-6.96c10.06,0.2 29.08,2.84 47.48,5.39c20.02,2.78 38.93,5.4 49.14,5.4c10.58,0 26.2,-2.93 41.31,-5.77c13.12,-2.47 26.68,-5.02 34.14,-5.02c7.73,0 32.7,2.57 56.84,5.05c17.81,1.83 36.09,3.71 49.56,4.8c-0.04,0.41 -0.08,0.81 -0.11,1.21zm0.33,28.07c0.03,0.21 0.06,0.44 0.09,0.67c-11.6,0.24 -24.66,2.44 -38.3,4.74c-16.66,2.82 -35.53,6 -54.27,6c-5.43,0 -15.45,-1.35 -26.06,-2.78c-14.38,-1.94 -30.69,-4.14 -44.84,-4.46c-19.2,-0.44 -32.01,3.35 -43.32,6.7c-14.43,4.27 -25.83,7.64 -47.64,1.09c-17.18,-5.16 -42.81,-10.37 -61.18,-13.17c-0.06,-2.51 -0.31,-5.12 -0.88,-7.86c-0.19,-0.92 -0.37,-1.86 -0.55,-2.82c2.07,0.32 4.23,0.67 6.52,1.04c19.64,3.16 46.54,7.49 66.19,7.49c18.15,0 40.37,-2.19 61.86,-4.32c26.76,-2.63 54.42,-5.37 71.47,-3.44c33.84,3.8 83.13,1.56 109.71,-0.95c0,0.3 0,0.6 0,0.89c0.04,2.76 0.55,6.47 1.2,11.18zm82.04,100.09c0,2.22 -1.81,4.04 -4.04,4.04l-472.24,0c-2.22,0 -4.04,-1.81 -4.04,-4.04l0,-16.95c0,-2.23 1.81,-4.04 4.04,-4.04l472.24,0c2.22,0 4.04,1.81 4.04,4.04l0,16.95z" fill="#ffffff" id="svg_5"/>
    </g>
   </g>
  </g>
 </g>
</svg>