<?xml version="1.0"?>
<svg width="108" height="108" xmlns="http://www.w3.org/2000/svg" xmlns:svg="http://www.w3.org/2000/svg">
 <defs>
  <style>.cls-1{fill:none;}.cls-2{clip-path:url(#clip-path);}</style>
  <clipPath id="clip-path">
   <rect class="cls-1" height="104" id="svg_1" width="104" x="2" y="2"/>
  </clipPath>
 </defs>
 <title/>
 <g class="layer">
  <title>Layer 1</title>
  <g class="cls-2" id="svg_2">
   <polygon fill="#ffffff" id="svg_3" points="22.21 64.17 22 64.17 22 62.26 22.21 64.17"/>
   <polygon fill="#ffffff" id="svg_4" points="86 62.26 86 64.17 85.79 64.17 86 62.26"/>
   <path d="m92,2.81a2,2 0 0 0 -1.49,-0.68l-8.28,0a2,2 0 0 0 -1.94,1.62l0,0l0,0.13l-1.55,12.28l-17.36,-1l-0.38,0l0,-4.9a2,2 0 0 0 -2,-2l-11,0a2,2 0 0 0 -2,2l0,8c-3.6,-3 -6.25,-5.11 -6.75,-5.49a2.63,2.63 0 0 0 -0.91,-0.43a1.84,1.84 0 0 0 -0.58,0l-0.19,0l-8.73,0.77l-1.11,-9.21a0,0 0 0 0 0,0a2,2 0 0 0 -2,-1.75l-8.18,0a2,2 0 0 0 -1.49,0.68a2.07,2.07 0 0 0 -0.5,1.59q5.27,47.15 10.54,94.34a8,8 0 0 0 8,7.12l39.9,0a8,8 0 0 0 8,-7.12q5.18,-47.18 10.45,-94.37a2.07,2.07 0 0 0 -0.45,-1.58zm-20.15,17l6.47,0.36l-3.7,29.76l-5,0l2.23,-30.12zm-10.52,-0.58l6.53,0.36l-2.23,30.3l-5,0l0.7,-30.66zm-4.33,-6.93l-0.48,37.64l-5,0q-0.78,-18.82 -1.52,-37.64l7,0zm-10.25,11.76l0.72,25.88l-5,0l-2.34,-31.28l6.62,5.4zm-10.75,-7.51l2.46,33.38l-5,0l-4,-32.79l6.54,-0.59zm-16.21,-10.36l4.21,0l1.13,9.36a2.42,2.42 0 0 0 0.09,0.39l4.17,34l-4.69,0l-4.91,-43.75zm62.43,53.92l-35.22,0l0,4.07l34.76,0l-3.83,34.11a4,4 0 0 1 -4,3.52l-39.93,0a4,4 0 0 1 -4,-3.52l-3.76,-34.12l8.76,0l0,-4.06l-9.22,0l-0.68,-6.11l57.8,0l-0.68,6.11zm1.09,-10.17l-4.68,0q2.68,-21.87 5.37,-43.75l4.23,0l-4.92,43.75z" fill="#ffffff" id="svg_5"/>
   <rect fill="#ffffff" height="4.07" id="svg_6" rx="1.96" ry="1.96" width="4" x="39" y="60.11"/>
  </g>
 </g>
</svg>