<?xml version="1.0"?>
<svg width="22.577778" height="22.577778" xmlns="http://www.w3.org/2000/svg" xmlns:svg="http://www.w3.org/2000/svg" version="1.1">
 <defs id="defs825">
  <pattern height="6" id="EMFhbasepattern" patternUnits="userSpaceOnUse" width="6" x="0" y="0"/>
  <pattern height="6" id="EMFhbasepattern-9" patternUnits="userSpaceOnUse" width="6" x="0" y="0"/>
  <pattern height="6" id="EMFhbasepattern-0" patternUnits="userSpaceOnUse" width="6" x="0" y="0"/>
  <pattern height="6" id="EMFhbasepattern-7" patternUnits="userSpaceOnUse" width="6" x="0" y="0"/>
  <pattern height="6" id="EMFhbasepattern-2" patternUnits="userSpaceOnUse" width="6" x="0" y="0"/>
  <pattern height="6" id="EMFhbasepattern-98" patternUnits="userSpaceOnUse" width="6" x="0" y="0"/>
  <pattern height="6" id="EMFhbasepattern-6" patternUnits="userSpaceOnUse" width="6" x="0" y="0"/>
  <pattern height="6" id="EMFhbasepattern-01" patternUnits="userSpaceOnUse" width="6" x="0" y="0"/>
  <pattern height="6" id="EMFhbasepattern-07" patternUnits="userSpaceOnUse" width="6" x="0" y="0"/>
  <pattern height="6" id="EMFhbasepattern-8" patternUnits="userSpaceOnUse" width="6" x="0" y="0"/>
  <pattern height="6" id="EMFhbasepattern-4" patternUnits="userSpaceOnUse" width="6" x="0" y="0"/>
  <pattern height="6" id="EMFhbasepattern-40" patternUnits="userSpaceOnUse" width="6" x="0" y="0"/>
  <pattern height="6" id="EMFhbasepattern-08" patternUnits="userSpaceOnUse" width="6" x="0" y="0"/>
  <pattern height="6" id="EMFhbasepattern-04" patternUnits="userSpaceOnUse" width="6" x="0" y="0"/>
  <pattern height="6" id="EMFhbasepattern-014" patternUnits="userSpaceOnUse" width="6" x="0" y="0"/>
  <pattern height="6" id="EMFhbasepattern-27" patternUnits="userSpaceOnUse" width="6" x="0" y="0"/>
  <pattern height="6" id="EMFhbasepattern-09" patternUnits="userSpaceOnUse" width="6" x="0" y="0"/>
  <pattern height="6" id="EMFhbasepattern-5" patternUnits="userSpaceOnUse" width="6" x="0" y="0"/>
  <pattern height="6" id="EMFhbasepattern-018" patternUnits="userSpaceOnUse" width="6" x="0" y="0"/>
 </defs>
 <metadata id="metadata828">image/svg+xml</metadata>
 <g class="layer">
  <title>Layer 1</title>
  <g id="layer1">
   <path d="m15.83,0.34c-1.12,0 -2.17,0.6 -2.65,1.6c-0.4,-0.23 -0.85,-0.34 -1.29,-0.22c-0.5,0.21 -0.87,0.57 -1.09,0.97c-1.29,-0.4 -2.69,-0.34 -3.84,0.15c-1.22,0.52 -2.2,1.46 -2.75,2.65l-0.81,-0.46c-0.75,-0.35 -1.64,-0.08 -1.9,0.62c-0.37,1 -0.64,2.46 0.05,3.97l-0.2,0c-0.61,0 -1.08,0.58 -0.94,1.17l1.88,8.06c0.18,0.8 0.9,1.37 1.73,1.38l-0.13,0.72c-0.15,0.59 0.3,1.19 0.93,1.19l13.14,0c0.62,0 1.08,-0.6 0.93,-1.19l-0.13,-0.72c0.82,-0.01 1.54,-0.58 1.73,-1.38l1.88,-8.06c0.12,-0.51 -0.2,-0.99 -0.68,-1.13c-0.14,-0.5 -0.42,-0.94 -0.8,-1.27c0.25,-0.85 0.04,-1.76 -0.55,-2.44c-0.58,-0.67 -1.47,-0.99 -2.34,-0.89c-0.15,-0.36 -0.44,-0.63 -0.78,-0.83c0.77,-1.11 0.59,-2.69 -0.43,-3.69c-0.04,-0.05 -0.1,-0.07 -0.16,-0.1c-0.26,-0.07 -0.52,-0.11 -0.79,-0.11zm0.5,0.79c0.76,0.83 0.85,2.1 0.14,2.88l-0.64,0.11c-0.19,0.02 -0.32,0.2 -0.29,0.4c0.03,0.19 0.21,0.32 0.41,0.29l0.65,-0.11c0.42,0.18 0.68,0.43 0.76,0.7c0.06,0.23 0,0.52 -0.19,0.82c-0.18,0.29 -0.46,0.57 -0.76,0.8l-0.52,-0.03c-0.19,-0.01 -0.36,0.14 -0.37,0.33c-0.01,0.19 0.14,0.36 0.33,0.37l0.33,0.02c-0.03,0.3 -0.22,0.67 -0.54,1c-0.39,0.42 -0.93,0.78 -1.34,0.9l-2.5,0c0.15,-0.26 0.3,-0.54 0.46,-0.81l1.5,-0.4c0.19,-0.04 0.3,-0.24 0.26,-0.42c-0.05,-0.19 -0.25,-0.3 -0.44,-0.25l-0.82,0.22c0.31,-0.54 0.63,-1.07 0.94,-1.61l1.51,-0.4c0.18,-0.04 0.3,-0.23 0.25,-0.42c-0.05,-0.19 -0.25,-0.3 -0.44,-0.25l-0.81,0.22c0.27,-0.44 0.52,-0.89 0.78,-1.34c0.1,-0.16 0.04,-0.38 -0.13,-0.48c-0.17,-0.1 -0.39,-0.03 -0.48,0.14c-0.26,0.44 -0.52,0.89 -0.78,1.33l-0.22,-0.8c-0.04,-0.19 -0.25,-0.31 -0.43,-0.25c-0.19,0.05 -0.31,0.24 -0.26,0.43l0.41,1.48c-0.31,0.53 -0.63,1.06 -0.94,1.6l-0.21,-0.8c-0.05,-0.19 -0.25,-0.3 -0.44,-0.24c-0.18,0.04 -0.3,0.24 -0.25,0.42l0.41,1.49c-0.22,0.39 -0.44,0.77 -0.65,1.16l-0.4,0c-0.66,-0.63 -0.89,-1.59 -0.92,-2.42c-0.03,-1.01 0.27,-2.02 0.98,-2.6l0.16,0.23c0.11,0.16 0.32,0.2 0.49,0.1c0.16,-0.11 0.2,-0.32 0.1,-0.49l-0.29,-0.42c0.1,-0.7 0.32,-1.33 0.94,-1.63c0.28,-0.07 0.63,0.03 1,0.3l0.24,0.61c0.07,0.18 0.28,0.27 0.46,0.2c0.18,-0.06 0.28,-0.26 0.2,-0.45l-0.22,-0.59c0.31,-1.17 1.55,-1.46 2.6,-1.32zm-5.78,2.16c-0.06,0.2 -0.11,0.4 -0.13,0.61c-0.16,0.1 -0.3,0.21 -0.43,0.34c-1.84,-0.38 -3.62,0.54 -4.28,2.11l-0.95,-0.55c0.48,-1.07 1.35,-1.92 2.44,-2.38c1.12,-0.43 2.29,-0.49 3.35,-0.14zm-1.54,1.48c0.18,0 0.36,0.01 0.54,0.04c-0.44,0.71 -0.6,1.59 -0.58,2.41c0.01,0.37 0.05,0.72 0.13,1.07l-2.81,-1.61c0.57,-1.15 1.51,-1.89 2.73,-1.91zm-5.98,0.86l0.64,0.37c-0.19,0.43 -0.36,1 -0.32,1.66c0.04,0.62 0.28,1.31 0.83,1.97l-1.85,0c-0.79,-1.42 -0.55,-2.76 -0.19,-3.74c0.13,-0.38 0.55,-0.41 0.89,-0.25zm16.77,0.78c0.39,0.44 0.55,1.01 0.45,1.57c-0.55,-0.24 -1.16,-0.31 -1.73,-0.17c-0.34,-0.31 -0.74,-0.53 -1.19,-0.66c0.17,-0.18 0.32,-0.37 0.44,-0.56c0.16,-0.26 0.28,-0.54 0.32,-0.83c0.63,-0.07 1.37,0.26 1.71,0.64zm-15.5,-0.05l5.17,2.94c0.05,0.12 0.12,0.23 0.18,0.33l-4.46,0c-0.81,-0.71 -1.08,-1.39 -1.12,-2.01c-0.03,-0.49 0.09,-0.92 0.24,-1.26zm1.49,1.42c-0.12,0 -0.24,0.06 -0.3,0.17l-0.19,0.33c-0.11,0.17 -0.04,0.39 0.13,0.49c0.17,0.1 0.39,0.04 0.48,-0.13l0.19,-0.34c0.1,-0.16 0.04,-0.38 -0.13,-0.48c-0.05,-0.03 -0.12,-0.04 -0.18,-0.04zm11.11,0l0,0c0.95,0.17 1.7,0.91 1.86,1.85l-3.04,0c0.16,-0.13 0.32,-0.27 0.46,-0.42c0.37,-0.41 0.67,-0.91 0.72,-1.43zm3.27,0.97c0.34,0.21 0.61,0.52 0.76,0.88l-1.46,0c-0.05,-0.42 -0.2,-0.82 -0.43,-1.17c0.4,0 0.83,0.12 1.12,0.3zm-13.08,-0.23c-0.12,0 -0.24,0.07 -0.3,0.18l-0.19,0.33c-0.1,0.17 -0.04,0.38 0.13,0.49c0.17,0.1 0.39,0.03 0.48,-0.14l0.19,-0.33c0.1,-0.17 0.04,-0.38 -0.13,-0.48c-0.05,-0.03 -0.12,-0.05 -0.18,-0.05zm-2.36,11.74l8.2,0c0.2,-0.01 0.35,-0.16 0.35,-0.36c0.01,-0.19 -0.15,-0.35 -0.35,-0.35l-8.88,0c-0.51,0 -0.96,-0.35 -1.08,-0.85l-1.51,-6.47l6.84,0c0.19,0 0.35,-0.16 0.35,-0.35c0,-0.19 -0.16,-0.35 -0.35,-0.35l-7,0l-0.21,-0.89c-0.03,-0.17 0.09,-0.32 0.26,-0.32l20.09,0c0.17,0 0.29,0.15 0.25,0.32l-0.2,0.89l-11.25,0c-0.2,0 -0.36,0.16 -0.36,0.35c0,0.2 0.16,0.35 0.36,0.35l11.09,0l-1.52,6.47c-0.12,0.5 -0.56,0.85 -1.07,0.85l-3.86,0c-0.2,0 -0.35,0.16 -0.35,0.35c0,0.2 0.16,0.35 0.35,0.36l3.18,0l0.15,0.85c0,0.01 0,0.02 0,0.03c0.04,0.16 -0.09,0.33 -0.24,0.33l-13.14,0c-0.16,0 -0.28,-0.17 -0.24,-0.33l0.15,-0.88zm-1.85,-7.2c-0.19,0 -0.35,0.16 -0.35,0.35c0,0.2 0.16,0.36 0.35,0.36l0.4,0c0.19,0 0.35,-0.16 0.35,-0.36c0,-0.19 -0.16,-0.35 -0.35,-0.35l-0.4,0zm1.94,0c-0.19,0 -0.35,0.16 -0.35,0.35c0,0.2 0.16,0.36 0.35,0.36l0.39,0c0.19,0 0.35,-0.16 0.35,-0.36c0,-0.19 -0.16,-0.35 -0.35,-0.35l-0.39,0zm1.94,0c-0.2,0 -0.36,0.16 -0.36,0.35c0,0.2 0.16,0.36 0.36,0.36l0.39,0c0.19,0 0.35,-0.16 0.35,-0.36c0,-0.19 -0.16,-0.35 -0.35,-0.35l-0.39,0zm-2.71,4.97c-0.2,0 -0.35,0.16 -0.35,0.35c0,0.19 0.16,0.35 0.35,0.35l6.57,0c0.19,0 0.35,-0.16 0.35,-0.35c0,-0.19 -0.16,-0.35 -0.35,-0.35l-6.57,0z" display="inline" fill="#ffffff" id="rect1484" stroke-linecap="round" stroke-linejoin="round" stroke-miterlimit="1.5" stroke-width="1.25"/>
  </g>
 </g>
</svg>