<?xml version="1.0"?>
<svg width="50.674" height="50.674" xmlns="http://www.w3.org/2000/svg" xmlns:svg="http://www.w3.org/2000/svg" enable-background="new 0 0 50.674 50.674" version="1.1" xml:space="preserve">
 <g class="layer">
  <title>Layer 1</title>
  <g id="svg_1">
   <path d="m30.08,33.91c0,0 1.83,-4.61 2.42,-6.5c0.58,-1.89 -0.17,-4.8 -3.42,-6.97c-3.25,-2.16 -12.08,-2.63 -17.33,-2.07s-8.75,3.3 -9.58,6.02c-0.84,2.73 3.41,11.49 3.41,11.49c-1.33,0 -5.58,0.76 -5.58,4.52s2.17,6.59 15.75,6.41c13.58,-0.19 19.17,-4.43 19.25,-7.82c0.08,-3.39 -4.92,-5.09 -4.92,-5.09zm-25.91,-9.13c0.25,-1.51 3.91,-4.06 7.58,-4.62c3.67,-0.57 8.67,-0.94 11.42,-0.09s7.25,1.6 6.66,4.15c-0.58,2.54 -0.66,3.2 -0.66,3.2s-4.75,-3.67 -7.84,-3.76c-3.08,-0.1 -8,0.18 -10.91,1.41c-2.92,1.22 -3.92,2.72 -3.92,2.72s-2.58,-1.5 -2.33,-3.01zm20.85,2.79c-0.38,-0.49 -0.88,-0.85 -1.63,0s-1.31,0.93 -1,1.41c0.32,0.5 0.63,0.78 -0.12,0.78s-2.69,0 -1.81,-0.63c0.87,-0.63 2,-1.63 1.19,-1.91s-1.38,0.5 -1.82,1.2s-0.06,1.49 -0.62,1.49s-2.5,0.35 -1.44,-0.78s2.38,-2.12 1.63,-2.69s-1.57,0.64 -2.13,1.49s-0.31,1.7 -1.31,1.76c-1,0.07 -1.5,-0.07 -1.5,-0.07s0.94,-1.63 1.62,-2.19s1.19,-0.78 1.25,-1.06s0.13,-1.13 0.69,-1.2s2.5,-0.71 4.81,0.28s4.25,1.83 4,2.54s-0.25,0.5 -1.18,0.98c-0.94,0.5 -2,1.28 -2,0.57s1.74,-1.48 1.37,-1.98zm-15.38,0.43c0.5,0.28 0.63,0.42 1,0.14s1.07,-0.77 1.07,-0.77s-1.07,0.98 -0.63,1.27s0.75,0.43 1.25,-0.07c0.5,-0.5 1.56,-1.84 1.88,-2.19c0.31,-0.35 0.75,-1.06 1,-1.06s1.56,-0.07 1.18,0.43c-0.37,0.5 -1.62,1.48 -2.12,2.26c-0.5,0.78 -0.75,1.63 -1.25,1.63s-1.69,-0.21 -3.06,-0.71c-1.38,-0.5 -1.44,-0.85 -1.06,-1.2c0.37,-0.35 0.62,-0.99 1.25,-0.92c-0.01,0 -1.01,0.92 -0.51,1.2zm-5.06,0.82c0,0 5,3.48 12.67,3.2s11.17,-1.79 13.08,-3.39c0,0 -3.67,8.76 -6.33,9.8c-2.67,1.04 -7,1.89 -9.92,1.6s-5.33,-1.89 -6.41,-4.24c-1.09,-2.36 -2.75,-5.09 -3.09,-6.97zm27.25,12.24c-1.08,1.04 -5.92,3.11 -9.92,3.49c-4,0.37 -10.5,0 -15.83,-1.04s-4.33,-3.2 -3.5,-4.15c0.83,-0.94 4,-1.7 4,-1.7c1.08,3.21 4.33,3.96 7,4.52s7.17,0 10.33,-1.13s4.92,-4.98 4.92,-4.98s2.42,0.57 3.67,1.7s0.42,2.26 -0.67,3.29zm17.69,-7.56c-1.12,-0.63 -3.06,-1.2 -5.12,0c-2.07,1.21 -2.69,3.04 -2.57,4.6s0.17,2.17 -0.31,2.89c-0.37,0.57 -2.56,3.18 -3.87,4.73c-1.32,1.55 -1.63,2.68 -1.13,3.53s2.56,0.92 3.5,0.21c0.94,-0.7 3.44,-5.37 4,-6.64c0.56,-1.27 2.25,-1.62 4.94,-3.88s1.69,-4.8 0.56,-5.45zm-9.25,13.56c-0.75,1.06 -2.12,1.56 -2.5,1.21c-0.37,-0.36 0.38,-1.13 1.81,-2.9c1.44,-1.76 2.94,-3.74 3.44,-3.81c0,0 -2,4.45 -2.75,5.5zm7.19,-8.61c-2.63,1.55 -2.81,1.83 -3.56,1.91c0,0 -1.25,-3.25 0,-4.67s3.62,-1.63 4.5,-1.27c0.87,0.35 1.68,2.46 -0.94,4.02zm-27.25,-28.25c1.06,0.63 0.56,1.91 -0.07,3.04s-0.43,1.83 0,1.98s1.13,-1.06 1.75,-2.83s-0.31,-2.83 -0.93,-3.19s-0.44,-1.41 0.31,-2.46s0.9,-1.98 0.19,-1.98c-0.57,0 -1,1.41 -1.75,2.75s-0.57,2.06 0.5,2.69zm-8.32,4.94c0,0 0.13,0.99 0.82,0.5s0.62,-1.91 0.12,-2.68s-0.81,-1.34 -0.44,-1.91s0.69,-1.48 0.32,-1.76s-1.32,0.85 -1.57,1.7s-0.25,1.76 0.19,2.11s0.81,1.41 0.56,2.05zm4.25,-4.44c1,1.13 -0.62,2.46 -0.37,3.46s1.12,0.28 1.87,-1.63s-0.75,-3.32 -1.56,-3.67s0.69,-3.32 1.13,-5.09s-0.63,-3.63 -0.69,-3.18c-0.31,2.33 -0.75,4.45 -1.63,6.85s0.25,2.12 1.25,3.25z" fill="#ffffff" id="svg_2"/>
  </g>
  <g id="svg_3"/>
  <g id="svg_4"/>
  <g id="svg_5"/>
  <g id="svg_6"/>
  <g id="svg_7"/>
  <g id="svg_8"/>
  <g id="svg_9"/>
  <g id="svg_10"/>
  <g id="svg_11"/>
  <g id="svg_12"/>
  <g id="svg_13"/>
  <g id="svg_14"/>
  <g id="svg_15"/>
  <g id="svg_16"/>
  <g id="svg_17"/>
 </g>
</svg>